<svg xmlns="http://www.w3.org/2000/svg" viewBox="0 0 235.06 33.31" style="enable-background:new 0 0 235.06 33.31" fill="rgba(237, 134, 67, 1)" xml:space="preserve"><path d="M235.06 33.31v-5.78h-27.37c-1.52-3.45-2.33-7.14-2.33-10.92 0-3.69.8-7.3 2.33-10.84h27.37V0h-32.42c-2.57 4.57-4.17 10.35-4.17 16.61 0 6.34 1.6 12.12 4.17 16.69h32.42zm-50.73 0V0h-6.98v24.72L154.64 0h-7.79v33.31h6.98V8.27l22.95 25.04h7.55zm-55.45 0V0h-14.45v5.78h7.46v27.53h6.99zm-19.17-6.26h-7.85v6.25h7.85v-6.25zM86.84 16.61c0 3.77-.88 7.46-2.33 10.92H60.44c-1.52-3.45-2.33-7.14-2.33-10.92 0-3.77.8-7.3 2.33-10.84h24.08c1.44 3.54 2.32 7.07 2.32 10.84m6.98 0c0-6.34-1.77-12.04-4.33-16.61H55.3c-2.49 4.57-4.09 10.27-4.09 16.61 0 6.26 1.61 12.12 4.17 16.69h34.11c2.65-4.49 4.33-10.43 4.33-16.69m-56.34 16.7V0H30.5v24.72L7.79 0H0v33.31h6.98V8.27l22.95 25.04h7.55z"/></svg>